<?xml version="1.0" encoding="UTF-8" standalone="no" ?>
<!DOCTYPE svg PUBLIC "-//W3C//DTD SVG 1.1//EN" "http://www.w3.org/Graphics/SVG/1.1/DTD/svg11.dtd">
<svg xmlns="http://www.w3.org/2000/svg" xmlns:xlink="http://www.w3.org/1999/xlink" version="1.1" width="1080" height="1080" viewBox="0 0 1080 1080" xml:space="preserve">
<desc>Created with Fabric.js 5.2.4</desc>
<defs>
</defs>
<rect x="0" y="0" width="100%" height="100%" fill="transparent"></rect>
<g transform="matrix(1 0 0 1 540 540)" id="1e528950-e2e4-487b-a49e-483b9ce0e3fb"  >
<rect style="stroke: none; stroke-width: 1; stroke-dasharray: none; stroke-linecap: butt; stroke-dashoffset: 0; stroke-linejoin: miter; stroke-miterlimit: 4; fill: rgb(255,255,255); fill-rule: nonzero; opacity: 1; visibility: hidden;" vector-effect="non-scaling-stroke"  x="-540" y="-540" rx="0" ry="0" width="1080" height="1080" />
</g>
<g transform="matrix(1 0 0 1 540 540)" id="d2ad7527-3841-407a-a1d2-b9ae25b245bd"  >
</g>
<g transform="matrix(2.19 0 0 2.19 620.45 415.54)"  >
<path style="stroke: none; stroke-width: 1; stroke-dasharray: none; stroke-linecap: butt; stroke-dashoffset: 0; stroke-linejoin: miter; stroke-miterlimit: 4; fill: rgb(255,255,255); fill-rule: nonzero; opacity: 1;" vector-effect="non-scaling-stroke"  transform=" translate(-256, -196.93)" d="M 64 352 L 128.3 335.9 C 169.4 325.59999999999997 212.9 330.4 250.8 349.29999999999995 C 295 371.4 346.3 374.09999999999997 392.5 356.69999999999993 L 427.2 343.69999999999993 C 439.7 338.99999999999994 448 327.0999999999999 448 313.69999999999993 L 448 66.1 C 448 43.099999999999994 423.8 28.099999999999994 403.2 38.39999999999999 L 393.59999999999997 43.19999999999999 C 347.29999999999995 66.39999999999999 292.79999999999995 66.39999999999999 246.49999999999997 43.19999999999999 C 211.39999999999998 25.599999999999987 171.09999999999997 21.19999999999999 132.99999999999997 30.69999999999999 L 64 48 L 64 352 z" stroke-linecap="round" />
</g>
<g transform="matrix(2.03 0 0 2.03 135.85 540)"  >
<path style="stroke: none; stroke-width: 1; stroke-dasharray: none; stroke-linecap: butt; stroke-dashoffset: 0; stroke-linejoin: miter; stroke-miterlimit: 4; fill: rgb(0,0,0); fill-rule: nonzero; opacity: 1;" vector-effect="non-scaling-stroke"  transform=" translate(-32, -256)" d="M 32 0 C 49.7 0 64 14.3 64 32 L 64 480 C 64 497.7 49.7 512 32 512 C 14.299999999999997 512 0 497.7 0 480 L 0 32 C 0 14.3 14.3 0 32 0 z" stroke-linecap="round" />
</g>
</svg>